<svg width="249" height="246" viewBox="0 0 249 246" fill="none" xmlns="http://www.w3.org/2000/svg">
<path fill-rule="evenodd" clip-rule="evenodd" d="M142.901 0.477356C151.774 -0.387183 162.317 -0.0692884 178.774 1.36505C189.948 2.33885 196.363 2.97725 203.028 3.25958C212.632 3.66636 218.434 3.05248 224.243 2.31036C227.324 1.91686 232.606 1.81766 238.703 2.27228C241.714 2.49691 243 4.48636 243.76 5.83868C244.897 7.86434 245.533 10.4166 245.873 13.2254C246.214 16.0434 246.265 19.191 246.189 22.449C246.112 25.7073 245.908 29.1141 245.73 32.4373C245.551 35.7707 245.399 39.0245 245.423 42.0223C245.468 47.6307 245.154 51.9755 244.818 56.159C244.483 60.3426 244.126 64.3483 244.071 69.3338C244.036 72.5546 244.383 75.5748 244.832 78.9305C245.28 82.2771 245.831 85.9564 246.177 90.4149C246.689 97.0227 248.127 103.055 248.557 126.647C248.796 139.786 247.217 155.738 246.358 168.115C244.221 198.948 246.497 207.311 247.01 216.384C247.192 219.612 247.933 224.18 247.672 229.267C247.609 230.494 247.258 231.473 246.697 232.286C246.148 233.082 245.429 233.668 244.715 234.161C241.614 236.301 238.325 237.441 235.106 238.233C233.499 238.628 231.895 238.94 230.346 239.242C228.788 239.546 227.285 239.84 225.837 240.204C222.501 241.043 219.068 241.355 214.759 241.541C212.604 241.634 210.214 241.696 207.501 241.775C204.785 241.854 201.737 241.949 198.249 242.11C190.704 242.458 184.744 243.645 143.027 244.006C130.28 244.116 116.329 243.973 104.358 243.937C92.3517 243.902 82.3922 243.975 77.5421 244.507C69.8238 245.352 63.3421 245.02 57.4053 244.416C51.4273 243.807 46.1475 242.945 40.5967 242.688C22.2775 241.842 17.1365 243.66 11.6348 243.82C9.85064 243.872 8.40751 243.066 7.25983 241.846C6.13277 240.649 5.24746 239.012 4.50886 237.258C3.76602 235.493 3.14144 233.534 2.57136 231.644C1.99509 229.735 1.47961 227.917 0.937568 226.353C-0.120863 223.3 -0.139221 219.826 0.183661 216.387C0.50314 212.983 1.19139 209.369 1.60261 206.244C2.13342 202.21 2.03557 198.697 1.75788 193.778C1.48023 188.859 1.02537 182.567 0.868232 173.058C0.614504 157.704 1.78339 143.764 2.5489 134.084C3.06281 127.585 3.16191 115.08 3.48737 97.032C4.11715 62.1091 3.79823 47.9374 4.20515 38.4266C4.40798 26.9989 3.99323 16.2901 5.47858 8.15997L5.49909 8.04865L5.54401 7.94415C5.9044 7.10595 6.28261 6.29679 6.95417 5.13165C6.6872 5.15118 6.4286 5.17038 6.17878 5.18927L6.96491 3.12579C7.37257 3.09615 7.79789 3.06502 8.23933 3.034C8.36623 2.83568 8.49849 2.62826 8.63874 2.4129C8.94007 1.95043 9.55985 1.81901 10.0225 2.11993C10.2922 2.29558 10.4483 2.58002 10.4727 2.87775C15.4923 2.53029 21.9762 2.07705 28.293 1.35529C36.5388 0.413124 44.0623 0.73189 50.7491 1.16486C57.4771 1.6005 63.2592 2.13969 68.1983 1.68829C74.6678 1.09696 82.6605 0.027586 92.4278 1.28986C110.488 3.62376 129.538 1.77957 142.901 0.477356Z" fill="#3D2314"></path>
</svg>